<svg xmlns="http://www.w3.org/2000/svg" viewBox="0 0 24 24" fill="white">
  <path d="M18.9 17.6c-1.9 1.4-4.7 2.2-7.1 2.2-3.3 0-6.2-1.2-8.4-3.1-.2-.2 0-.5.2-.4 2.4 1.4 5.3 2.2 8.3 2.2 2.1 0 4.5-.4 6.7-1.4.4-.1.6.3.3.5zm.8-.9c-.2-.3-1.2-.1-1.7 0-.2 0-.2-.2 0-.3 1.3-.9 3.4-.6 3.7-.3.3.3-.1 2.4-1.3 3.4-.2.2-.4.1-.3-.1.3-.6.8-1.8.6-2.1zM17.1 6.3c-.4-.3-.9-.5-1.5-.5-.7 0-1.4.2-2 .6-.4.3-.8.7-1 1.2V6h-2v10h2v-5.2c0-.8.2-1.5.7-2 .4-.5 1-.7 1.7-.7.6 0 1.1.2 1.5.6.3.4.5 1 .5 1.8V16h2v-5.9c0-1.7-.4-2.9-1.3-3.8zM6.5 8.1c.8 0 1.4.2 1.9.7.4.5.7 1.1.7 2H4.2c.1-.9.4-1.6.9-2 .4-.5.9-.7 1.4-.7zm0-2.1c-1.6 0-2.9.5-3.9 1.6C1.6 8.6 1 10 1 11.7c0 1.7.5 3.1 1.6 4.1 1 .9 2.3 1.4 4 1.4 1.9 0 3.4-.7 4.4-2.1l-1.7-1c-.7.9-1.6 1.4-2.8 1.4-.8 0-1.5-.2-2-.7-.5-.5-.8-1.2-.9-2h7.1v-.8c0-1.9-.5-3.4-1.5-4.5C9.2 6.5 8 6 6.5 6z"/>
</svg>
