<svg xmlns="http://www.w3.org/2000/svg" viewBox="0 0 24 24" fill="white">
  <path d="M12 .5a12 12 0 0 0-3.8 23.4c.6.1.8-.3.8-.6v-2c-3.3.7-4-1.6-4-1.6a3.1 3.1 0 0 0-1.3-1.7c-1.1-.7.1-.7.1-.7a2.4 2.4 0 0 1 1.7 1.2 2.4 2.4 0 0 0 3.3.9 2.4 2.4 0 0 1 .7-1.5c-2.6-.3-5.3-1.3-5.3-5.7a4.5 4.5 0 0 1 1.2-3.1 4.1 4.1 0 0 1 .1-3s1-.3 3.2 1.2a11 11 0 0 1 5.8 0c2.2-1.5 3.2-1.2 3.2-1.2a4.1 4.1 0 0 1 .1 3 4.5 4.5 0 0 1 1.2 3.1c0 4.4-2.7 5.4-5.3 5.7a2.7 2.7 0 0 1 .8 2.1v3.1c0 .3.2.7.8.6A12 12 0 0 0 12 .5z"/>
</svg>
