<svg xmlns="http://www.w3.org/2000/svg" viewBox="0 0 24 24" fill="white">
  <path d="M12 0C5.4 0 0 5.4 0 12s5.4 12 12 12 12-5.4 12-12S18.7 0 12 0zm5.5 17.3c-.2.3-.6.4-.9.2-2.6-1.6-5.9-2-9.9-1.3-.4.1-.7-.2-.8-.5-.1-.4.2-.7.5-.8 4.3-.8 7.9-.3 10.8 1.5.3.2.4.6.3.9zm1.3-2.8c-.3.4-.8.5-1.2.3-3-1.8-7.5-2.4-11.1-1.5-.5.1-.9-.2-1-.7-.1-.5.2-.9.7-1 4.1-.9 9-.3 12.3 1.7.4.3.5.8.3 1.2zm.1-2.9C15.2 9.4 9.3 9.2 6 10.1c-.6.2-1.2-.2-1.3-.8-.2-.6.2-1.2.8-1.3 3.8-1.1 10.1-.9 14.7 1.8.5.3.7 1 .4 1.5-.3.5-1 .7-1.5.4z"/>
</svg>
